<?xml version="1.0" standalone="no"?>
<!DOCTYPE svg PUBLIC "-//W3C//DTD SVG 20010904//EN"
 "http://www.w3.org/TR/2001/REC-SVG-20010904/DTD/svg10.dtd">
<svg version="1.0" xmlns="http://www.w3.org/2000/svg"
 width="225.000000pt" height="225.000000pt" viewBox="0 0 225.000000 225.000000"
 preserveAspectRatio="xMidYMid meet">
<metadata>
Created by potrace 1.14, written by Peter Selinger 2001-2017
</metadata>
<g transform="translate(0.000000,225.000000) scale(0.100000,-0.100000)"
fill="#000000" stroke="none">
<path d="M0 1125 l0 -1125 1125 0 1125 0 0 1125 0 1125 -1125 0 -1125 0 0
-1125z m1445 214 c107 -15 105 -13 105 -68 0 -46 1 -48 25 -43 59 11 95 -23
95 -90 0 -54 -42 -109 -132 -174 -45 -32 -123 -101 -173 -152 l-90 -93 -76
-10 c-51 -7 -100 -7 -150 0 l-74 10 -81 84 c-126 131 -193 288 -194 449 0 72
-3 69 70 84 112 23 518 25 675 3z"/>
<path d="M823 1303 c-29 -2 -53 -8 -53 -12 0 -14 120 -21 347 -21 251 0 369 8
354 23 -11 11 -540 19 -648 10z"/>
<path d="M1553 1178 c-5 -7 -15 -38 -22 -68 -8 -30 -19 -66 -26 -80 -7 -14
-16 -36 -20 -49 -7 -23 -6 -23 37 7 94 64 127 127 98 183 -12 21 -53 26 -67 7z"/>
<path d="M1117 1118 c-21 -17 -39 -66 -32 -89 7 -20 -9 -26 -20 -9 -3 6 -21
10 -38 10 l-32 0 30 -19 c37 -23 83 -71 67 -71 -6 0 -18 11 -27 23 -8 13 -26
29 -40 35 -22 10 -25 9 -25 -6 0 -21 36 -57 66 -66 32 -10 51 18 37 53 -8 22
-6 36 9 67 10 21 23 43 28 48 12 12 13 36 2 36 -5 0 -16 -6 -25 -12z"/>
<path d="M1160 1117 c0 -8 -9 -26 -20 -40 -20 -25 -27 -67 -12 -67 30 0 67 99
43 114 -6 4 -11 1 -11 -7z"/>
<path d="M1154 1007 c-35 -31 -27 -67 16 -67 27 0 90 42 90 60 0 8 -68 -13
-104 -32 -19 -10 -20 -10 -7 5 7 9 28 19 47 23 18 3 38 12 45 20 21 26 -56 17
-87 -9z"/>
</g>
</svg>
